<svg width="54" height="41" viewBox="0 0 53.7643 40.7437" fill="none" xmlns="http://www.w3.org/2000/svg">
<path id="Logo symbol" fill-rule="evenodd" clip-rule="evenodd" d="M26.8805 0C34.3045 2.62864e-06 41.024 2.2811 45.8893 5.96717C50.7553 9.65372 53.7643 14.7467 53.7643 20.372C53.7643 25.9973 50.7552 31.09 45.8893 34.7765C41.024 38.4626 34.3045 40.7437 26.8805 40.7437C19.4565 40.7437 12.737 38.4626 7.8717 34.7765C3.00928 31.09 5.17075e-05 25.9972 0 20.372C0 14.7469 3.00895 9.65402 7.87465 5.9675C12.737 2.27762 19.4568 0 26.8805 0ZM18.6925 27.3811C18.3542 29.0999 17.8967 30.6556 17.3451 31.9861L17.3447 31.9864C16.7238 33.4816 15.9859 34.6893 15.1682 35.5255L15.1672 35.5264C14.6367 36.0666 14.0726 36.45 13.4835 36.6544C16.6861 38.1272 20.3619 39.0928 24.3131 39.3871C24.0293 39.1888 23.751 38.9584 23.4794 38.6973L23.4784 38.6966C22.433 37.6874 21.487 36.2308 20.6952 34.426C19.8236 32.445 19.1358 30.0496 18.6925 27.3811ZM35.0577 27.4356C34.614 30.082 33.93 32.4586 33.0645 34.4257L33.0648 34.426C32.2734 36.2301 31.3271 37.6907 30.2806 38.6973L30.2796 38.6982C30.0078 38.9588 29.729 39.1888 29.4446 39.3871C33.3933 39.0934 37.067 38.1294 40.2684 36.6587C39.6749 36.4554 39.1069 36.0702 38.5728 35.5264L38.5718 35.5255C37.7542 34.6893 37.0162 33.4816 36.3953 31.9864L36.3949 31.9861C35.8491 30.6696 35.3949 29.1329 35.0577 27.4356ZM19.3961 20.979C19.4662 25.9237 20.3483 30.3466 21.7109 33.595L21.8502 33.9189L21.8505 33.9195C22.599 35.6258 23.4622 36.9274 24.3538 37.7884L24.5197 37.9424C25.1187 38.4798 25.7002 38.7914 26.2561 38.9229V20.979H19.3961ZM27.5174 38.9193C28.1201 38.7728 28.7533 38.4137 29.4069 37.7874C30.2975 36.9304 31.1607 35.6265 31.9095 33.9195L31.9099 33.9189C33.3512 30.6437 34.2914 26.0872 34.3639 20.979H27.5174V38.9193ZM6.91155 20.979C6.98268 25.144 7.71176 28.8422 8.81476 31.5026L8.9248 31.7617C9.48011 33.0361 10.1003 34.0011 10.7272 34.6425C11.3937 35.3211 11.9882 35.5639 12.4974 35.5639C13.0065 35.5639 13.601 35.3211 14.2675 34.6425C14.9362 33.9583 15.5971 32.9059 16.1799 31.5026C17.2829 28.8422 18.012 25.144 18.0832 20.979H6.91155ZM35.6568 20.979C35.728 25.144 36.4571 28.8422 37.5601 31.5026L37.6701 31.7617C38.2254 33.0361 38.8456 34.0011 39.4725 34.6425C40.139 35.3211 40.7335 35.5639 41.2427 35.5639C41.7518 35.5639 42.3463 35.3211 43.0128 34.6425C43.6815 33.9583 44.3424 32.9059 44.9252 31.5026C46.0282 28.8422 46.7573 25.144 46.8285 20.979H35.6568ZM48.0898 20.979C48.0187 25.2744 47.2689 29.1436 46.0904 31.9861L46.09 31.9864C45.8389 32.591 45.5679 33.1481 45.281 33.6531C49.6333 30.2993 52.2851 25.8328 52.4898 20.979H48.0898ZM1.2745 20.979C1.47863 25.8188 4.1154 30.2737 8.44227 33.6242C8.16152 33.1269 7.89627 32.5794 7.64997 31.9864L7.64965 31.9861C6.47106 29.1436 5.72127 25.2744 5.65019 20.979H1.2745ZM26.2561 1.76C25.6495 1.90422 25.0118 2.26395 24.3535 2.89457C23.4626 3.75149 22.5996 5.05627 21.8505 6.76373L21.8502 6.76439C20.4075 10.0425 19.4668 14.6012 19.3958 19.7177H26.2561V1.76ZM27.5174 19.7177H34.3643C34.2932 14.604 33.3525 10.0424 31.9099 6.76439L31.9095 6.76373C31.161 5.05753 30.2979 3.75591 29.4062 2.8949L29.2403 2.74051C28.6462 2.2075 28.0692 1.89667 27.5174 1.76328V19.7177ZM41.2427 5.05235C40.7365 5.05235 40.1387 5.29544 39.4725 5.97374C38.8038 6.65796 38.1429 7.7103 37.5601 9.11368C36.45 11.7912 35.7186 15.5198 35.6555 19.7177H46.8298C46.7667 15.5198 46.0353 11.7912 44.9252 9.11368L44.8152 8.85451C44.2599 7.5801 43.6397 6.61519 43.0128 5.97374L42.8887 5.85154C42.2722 5.2659 41.7171 5.05235 41.2427 5.05235ZM45.4055 7.18682C45.6464 7.63126 45.8755 8.11329 46.09 8.62983L46.0904 8.63016C47.2763 11.4904 48.0282 15.3902 48.0911 19.7177H52.4878C52.2701 14.9284 49.67 10.5186 45.4055 7.18682ZM12.4974 5.05235C11.9912 5.05235 11.3934 5.29544 10.7272 5.97374C10.0585 6.65796 9.3976 7.71031 8.81476 9.11368C7.70468 11.7912 6.97327 15.5198 6.91024 19.7177H18.0845C18.0214 15.5198 17.29 11.7912 16.1799 9.11368L16.0699 8.85451C15.5146 7.5801 14.8944 6.61519 14.2675 5.97374L14.1434 5.85154C13.5269 5.2659 12.9719 5.05235 12.4974 5.05235ZM8.31613 7.22032C4.07706 10.5482 1.49349 14.9445 1.27647 19.7177H5.64887C5.71184 15.3902 6.46372 11.4904 7.64965 8.63016L7.64997 8.62983C7.8591 8.12629 8.08191 7.65543 8.31613 7.22032ZM24.2205 1.36319C20.3669 1.66035 16.7777 2.5959 13.6372 4.01797C14.1142 4.21028 14.5744 4.52147 15.0125 4.93738L15.1672 5.0898L15.1682 5.09078C15.9858 5.92694 16.7238 7.13467 17.3447 8.62983L17.3451 8.63016C17.9 9.96857 18.3595 11.5347 18.6984 13.2657C19.142 10.6113 19.8276 8.22844 20.6956 6.25623C21.487 4.45245 22.4331 2.99205 23.4794 1.98566L23.4801 1.98501C23.7218 1.75339 23.9688 1.54581 24.2205 1.36319ZM29.5409 1.36319C29.7239 1.4962 29.9047 1.64224 30.0825 1.80171L30.2806 1.98566L30.2813 1.98632C31.3266 2.99535 32.2728 4.45172 33.0645 6.25623L33.2113 6.59818C34.0037 8.48696 34.6338 10.729 35.0521 13.2092C35.3899 11.5006 35.846 9.95402 36.3949 8.63016L36.3953 8.62983C37.0162 7.13467 37.7542 5.92694 38.5718 5.09078L38.5728 5.0898C39.0602 4.59355 39.5769 4.22925 40.1143 4.01468C36.9755 2.59535 33.3899 1.66041 29.5409 1.36319Z" fill="#0E0F11"/>
</svg>
