<svg width="54" height="67" viewBox="0 0 53.9 66.7209" fill="none" xmlns="http://www.w3.org/2000/svg">
<g id="Frame 1629124160">
<path id="Ellipse 2156" d="M26.9502 0.723633C41.2977 0.723749 53.1757 15.1839 53.1758 33.3604C53.1758 51.5369 41.2977 65.997 26.9502 65.9971C12.6026 65.9971 0.723633 51.5369 0.723633 33.3604C0.723679 15.1838 12.6026 0.723633 26.9502 0.723633Z" stroke="var(--stroke-0, #0E0F11)" stroke-width="1.44791"/>
<line id="Line 79" y1="-0.723954" x2="4.70971" y2="-0.723954" transform="matrix(4.37121e-08 1 1 -4.37121e-08 27.4141 8.375)" stroke="var(--stroke-0, #0E0F11)" stroke-width="1.44791"/>
<line id="Line 80" y1="-0.723954" x2="4.70971" y2="-0.723954" transform="matrix(0.642788 0.766044 0.766044 -0.642788 16.4844 12.0664)" stroke="var(--stroke-0, #0E0F11)" stroke-width="1.44791"/>
<line id="Line 81" x1="37.9296" y1="12.5318" x2="34.9022" y2="16.1396" stroke="var(--stroke-0, #0E0F11)" stroke-width="1.44791"/>
<line id="Line 74" x1="26.6901" y1="59.623" x2="26.6901" y2="54.9133" stroke="var(--stroke-0, #0E0F11)" stroke-width="1.44791"/>
<line id="Line 75" x1="15.9142" y1="55.4741" x2="18.9415" y2="51.8663" stroke="var(--stroke-0, #0E0F11)" stroke-width="1.44791"/>
<line id="Line 77" y1="-0.723954" x2="4.70971" y2="-0.723954" transform="matrix(-0.642788 -0.766044 -0.766044 0.642788 37.3594 55.9395)" stroke="var(--stroke-0, #0E0F11)" stroke-width="1.44791"/>
<line id="Line 76" x1="10.3352" y1="45.371" x2="14.9734" y2="44.5532" stroke="var(--stroke-0, #0E0F11)" stroke-width="1.44791"/>
<line id="Line 78" y1="-0.723954" x2="4.70971" y2="-0.723954" transform="matrix(-0.984808 -0.173648 -0.173648 0.984808 43.6409 46.0838)" stroke="var(--stroke-0, #0E0F11)" stroke-width="1.44791"/>
<line id="Line 84" x1="7.59375" y1="37.7331" x2="46.5797" y2="37.7331" stroke="var(--stroke-0, #0E0F11)" stroke-width="1.44791"/>
<line id="Line 85" x1="11.5078" y1="33.2839" x2="42.6442" y2="33.2839" stroke="var(--stroke-0, #0E0F11)" stroke-width="1.44791"/>
<line id="Line 86" x1="15.4453" y1="28.8366" x2="38.7322" y2="28.8366" stroke="var(--stroke-0, #0E0F11)" stroke-width="1.44791"/>
<line id="Line 87" x1="20.6641" y1="24.3893" x2="33.4849" y2="24.3893" stroke="var(--stroke-0, #0E0F11)" stroke-width="1.44791"/>
<g id="Group 1629125539">
<circle id="Ellipse 2182" cx="27.0764" cy="18.4436" r="0.915777" transform="rotate(180 27.0764 18.4436)" fill="var(--fill-0, #0E0F11)"/>
<circle id="Ellipse 2184" cx="30.7483" cy="18.4436" r="0.915777" transform="rotate(180 30.7483 18.4436)" fill="var(--fill-0, #0E0F11)"/>
<circle id="Ellipse 2183" cx="23.4202" cy="18.4436" r="0.915777" transform="rotate(180 23.4202 18.4436)" fill="var(--fill-0, #0E0F11)"/>
</g>
</g>
</svg>
