<svg width="54" height="67" viewBox="0 0 57 67.5998" fill="none" xmlns="http://www.w3.org/2000/svg">
<g id="Frame 1629124157">
<path id="Ellipse 2158" d="M29.1064 1.60254C43.454 1.60266 55.332 16.0628 55.332 34.2393C55.332 52.4158 43.454 66.8759 29.1064 66.876C14.7588 66.876 2.87988 52.4158 2.87988 34.2393C2.87993 16.0627 14.7589 1.60254 29.1064 1.60254Z" stroke="var(--stroke-0, #0E0F11)" stroke-width="1.44791"/>
<line id="Line 73" x1="2.64062" y1="35.2057" x2="56.0174" y2="35.2057" stroke="var(--stroke-0, #0E0F11)" stroke-width="1.44791"/>
<path id="Ellipse 2170" d="M15.1861 6.69647C18.3888 4.56676 22.8928 5.38842 27.7264 8.90246C32.5193 12.387 37.4374 18.3945 41.3077 26.1154C45.1778 33.8361 47.2356 41.7448 47.4593 48.2677C47.6848 54.846 46.0506 59.7493 42.8478 61.8791C39.6451 64.0086 35.1418 63.1865 30.3084 59.6725C25.5155 56.188 20.597 50.1817 16.7267 42.461C12.8564 34.7401 10.7991 26.8303 10.5755 20.3073C10.35 13.7293 11.9836 8.82625 15.1861 6.69647Z" stroke="var(--stroke-0, #0E0F11)" stroke-width="1.44791"/>
<path id="Ellipse 2171" d="M42.8452 6.69647C39.6424 4.56676 35.1384 5.38842 30.3049 8.90246C25.5119 12.387 20.5939 18.3945 16.7236 26.1154C12.8534 33.8361 10.7956 41.7448 10.572 48.2677C10.3465 54.846 11.9807 59.7493 15.1834 61.8791C18.3861 64.0086 22.8894 63.1865 27.7229 59.6725C32.5158 56.188 37.4343 50.1817 41.3046 42.461C45.1749 34.7401 47.2322 26.8303 47.4558 20.3073C47.6812 13.7293 46.0477 8.82625 42.8452 6.69647Z" stroke="var(--stroke-0, #0E0F11)" stroke-width="1.44791"/>
<g id="Group 1629125536">
<circle id="Ellipse 2182" cx="29.6423" cy="29.5252" r="0.915777" fill="var(--fill-0, #0E0F11)"/>
<circle id="Ellipse 2184" cx="25.7283" cy="29.5252" r="0.915777" fill="var(--fill-0, #0E0F11)"/>
<circle id="Ellipse 2183" cx="33.1892" cy="29.5252" r="0.915777" fill="var(--fill-0, #0E0F11)"/>
</g>
</g>
</svg>
