<svg width="54" height="67" viewBox="0 0 54 66.8447" fill="none" xmlns="http://www.w3.org/2000/svg">
<g id="Group 1629125546">
<path id="Ellipse 2156" d="M27 0.725586C41.3741 0.725586 53.2742 15.2118 53.2744 33.4219C53.2744 51.6322 41.3742 66.1191 27 66.1191C12.6258 66.1191 0.725586 51.6322 0.725586 33.4219C0.725782 15.2118 12.6259 0.725586 27 0.725586Z" stroke="var(--stroke-0, #0E0F11)" stroke-width="1.45059"/>
<path id="Ellipse 2173" d="M51.7021 41.9319C51.702 40.8254 51.1312 39.693 49.9296 38.5833C48.7271 37.4727 46.947 36.4389 44.6865 35.5559C40.1701 33.7917 33.8812 32.6848 26.8984 32.6848C19.9156 32.6848 13.6267 33.7917 9.11031 35.5559C6.84983 36.4389 5.06968 37.4727 3.86715 38.5833C2.66549 39.693 2.09379 40.8253 2.09371 41.9319C2.09371 43.0384 2.66557 44.1707 3.86715 45.2805C5.06968 46.3911 6.84983 47.4249 9.11031 48.3079C13.6268 50.0721 19.9155 51.179 26.8984 51.179C33.8812 51.1789 40.1701 50.0721 44.6865 48.3079C46.9469 47.4249 48.7271 46.3911 49.9296 45.2805C51.1311 44.1708 51.7021 43.0384 51.7021 41.9319Z" stroke="var(--stroke-0, #0E0F11)" stroke-width="1.45059"/>
<g id="Group 1629125540">
<circle id="Ellipse 2182" cx="17.1863" cy="27.9115" r="0.917476" transform="rotate(-180 17.1863 27.9115)" fill="var(--fill-0, #0E0F11)"/>
<circle id="Ellipse 2184" cx="20.867" cy="27.9115" r="0.917476" transform="rotate(-180 20.867 27.9115)" fill="var(--fill-0, #0E0F11)"/>
<circle id="Ellipse 2183" cx="13.5242" cy="27.9115" r="0.917476" transform="rotate(-180 13.5242 27.9115)" fill="var(--fill-0, #0E0F11)"/>
</g>
<g id="Group 1629125541">
<circle id="Ellipse 2182_2" cx="36.8423" cy="27.9115" r="0.917476" transform="rotate(-180 36.8423 27.9115)" fill="var(--fill-0, #0E0F11)"/>
<circle id="Ellipse 2184_2" cx="40.5044" cy="27.9115" r="0.917476" transform="rotate(-180 40.5044 27.9115)" fill="var(--fill-0, #0E0F11)"/>
<circle id="Ellipse 2183_2" cx="33.1615" cy="27.9115" r="0.917476" transform="rotate(-180 33.1615 27.9115)" fill="var(--fill-0, #0E0F11)"/>
</g>
<path id="Ellipse 2174" d="M48.04 50.9895C48.04 50.0828 47.5743 49.141 46.5635 48.2053C45.5518 47.2687 44.0478 46.3922 42.1289 45.6408C38.2953 44.1397 32.9496 43.1956 27.0088 43.1955C21.0677 43.1955 15.7213 44.1397 11.8877 45.6408C9.96877 46.3922 8.46474 47.2687 7.4531 48.2053C6.44234 49.141 5.97658 50.0828 5.97654 50.9895C5.97654 51.8961 6.44238 52.8379 7.4531 53.7736C8.46473 54.7102 9.96881 55.5867 11.8877 56.3381C15.7213 57.8392 21.0677 58.7834 27.0088 58.7834C32.9496 58.7834 38.2953 57.8392 42.1289 56.3381C44.0478 55.5867 45.5518 54.7102 46.5635 53.7736C47.5742 52.8379 48.04 51.8961 48.04 50.9895Z" stroke="var(--stroke-0, #0E0F11)" stroke-width="1.45059"/>
<line id="Line 72" x1="27.7426" y1="3.17038e-08" x2="27.7426" y2="66.8447" stroke="var(--stroke-0, #0E0F11)" stroke-width="1.45059"/>
</g>
</svg>
