<svg width="54" height="67" viewBox="0 0 53.9 66.7209" fill="none" xmlns="http://www.w3.org/2000/svg">
<g id="Group 1629125542">
<path id="Vector 20" d="M27.4894 22.1743V49.2552" stroke="var(--stroke-0, #0E0F11)" stroke-width="1.44791"/>
<path id="Vector 21" d="M27.4986 22.3024V10.3319M27.4986 22.3024L30.62 14.9107M27.4986 22.3024L37.9647 17.331M27.4986 22.3024L39.7962 25.1805M27.4986 22.3024L35.3482 32.7684M27.4986 22.3024L19.1258 32.2451M27.4986 22.3024L14.4161 24.3956M27.4986 22.3024L19.1258 17.331" stroke="var(--stroke-0, #0E0F11)" stroke-width="1.44791"/>
<path id="Vector 22" d="M27.4975 49.2535L35.3471 45.9174M27.4975 49.2535H40.1692M27.4975 49.2535L35.3471 38.7874M27.4975 49.2535L19.1247 39.3107M27.4975 49.2535H14.7891M27.4975 49.2535L19.8913 45.9174" stroke="var(--stroke-0, #0E0F11)" stroke-width="1.44791"/>
<path id="Ellipse 2156" d="M26.9502 0.723633C41.2977 0.723749 53.1757 15.1839 53.1758 33.3604C53.1758 51.5369 41.2977 65.997 26.9502 65.9971C12.6026 65.9971 0.723633 51.5369 0.723633 33.3604C0.723679 15.1838 12.6026 0.723633 26.9502 0.723633Z" stroke="var(--stroke-0, #0E0F11)" stroke-width="1.44791"/>
<g id="Group 1629125535">
<circle id="Ellipse 2182" cx="27.3241" cy="55.0749" r="0.915777" fill="var(--fill-0, #0E0F11)"/>
<circle id="Ellipse 2184" cx="23.6688" cy="55.0749" r="0.915777" fill="var(--fill-0, #0E0F11)"/>
<circle id="Ellipse 2183" cx="30.9981" cy="55.0749" r="0.915777" fill="var(--fill-0, #0E0F11)"/>
</g>
</g>
</svg>
