<svg preserveAspectRatio="none" width="100%" height="100%" overflow="visible" style="display: block;" viewBox="0 0 16 336" fill="none" xmlns="http://www.w3.org/2000/svg">
<g id="Container" clip-path="url(#clip0_0_4)">
<path id="&#226;&#134;&#146;" d="M7.03801 171.42L9.90801 168.592H4.00001V167.444H9.90801L7.03801 164.602H8.57801L11.98 168.018L8.57801 171.42H7.03801Z" fill="var(--fill-0, white)"/>
<g id="Container_2">
<line id="Line 71" opacity="0.5" x1="33.0647" y1="169.261" x2="23.9353" y2="169.261" stroke="var(--stroke-0, white)" stroke-width="1.52156"/>
<line id="Line 56" opacity="0.5" x1="33.0647" y1="169.261" x2="23.9353" y2="169.261" stroke="var(--stroke-0, white)" stroke-width="1.52156"/>
<line id="Line 57" opacity="0.5" x1="33.0647" y1="169.261" x2="23.9353" y2="169.261" stroke="var(--stroke-0, white)" stroke-width="1.52156"/>
<line id="Line 58" opacity="0.5" x1="33.0647" y1="169.261" x2="23.9353" y2="169.261" stroke="var(--stroke-0, white)" stroke-width="1.52156"/>
<line id="Line 59" opacity="0.5" x1="33.0647" y1="169.261" x2="23.9353" y2="169.261" stroke="var(--stroke-0, white)" stroke-width="1.52156"/>
<line id="Line 60" opacity="0.5" x1="33.0647" y1="169.261" x2="23.9353" y2="169.261" stroke="var(--stroke-0, white)" stroke-width="1.52156"/>
<line id="Line 61" opacity="0.5" x1="33.0647" y1="169.261" x2="23.9353" y2="169.261" stroke="var(--stroke-0, white)" stroke-width="1.52156"/>
<line id="Line 62" opacity="0.5" x1="33.0647" y1="169.261" x2="23.9353" y2="169.261" stroke="var(--stroke-0, white)" stroke-width="1.52156"/>
<line id="Line 63" opacity="0.5" x1="33.0647" y1="169.261" x2="23.9353" y2="169.261" stroke="var(--stroke-0, white)" stroke-width="1.52156"/>
<line id="Line 64" opacity="0.5" x1="33.0647" y1="169.261" x2="23.9353" y2="169.261" stroke="var(--stroke-0, white)" stroke-width="1.52156"/>
<line id="Line 65" opacity="0.5" x1="33.0647" y1="169.261" x2="23.9353" y2="169.261" stroke="var(--stroke-0, white)" stroke-width="1.52156"/>
<line id="Line 66" opacity="0.5" x1="33.0647" y1="169.261" x2="23.9353" y2="169.261" stroke="var(--stroke-0, white)" stroke-width="1.52156"/>
<line id="Line 67" opacity="0.5" x1="33.0647" y1="169.261" x2="23.9353" y2="169.261" stroke="var(--stroke-0, white)" stroke-width="1.52156"/>
<line id="Line 68" opacity="0.5" x1="33.0647" y1="169.261" x2="23.9353" y2="169.261" stroke="var(--stroke-0, white)" stroke-width="1.52156"/>
<line id="Line 69" opacity="0.5" x1="33.0647" y1="169.261" x2="23.9353" y2="169.261" stroke="var(--stroke-0, white)" stroke-width="1.52156"/>
<line id="Line 70" opacity="0.5" x1="33.0647" y1="169.261" x2="23.9353" y2="169.261" stroke="var(--stroke-0, white)" stroke-width="1.52156"/>
<line id="Line 71_2" opacity="0.5" x1="33.0647" y1="169.261" x2="23.9353" y2="169.261" stroke="var(--stroke-0, white)" stroke-width="1.52156"/>
<line id="Line 56_2" opacity="0.5" x1="33.0647" y1="169.261" x2="23.9353" y2="169.261" stroke="var(--stroke-0, white)" stroke-width="1.52156"/>
<line id="Line 57_2" opacity="0.5" x1="33.0647" y1="169.261" x2="23.9353" y2="169.261" stroke="var(--stroke-0, white)" stroke-width="1.52156"/>
<line id="Line 58_2" opacity="0.5" x1="33.0647" y1="169.261" x2="23.9353" y2="169.261" stroke="var(--stroke-0, white)" stroke-width="1.52156"/>
<line id="Line 59_2" opacity="0.5" x1="33.0647" y1="169.261" x2="23.9353" y2="169.261" stroke="var(--stroke-0, white)" stroke-width="1.52156"/>
<line id="Line 60_2" opacity="0.5" x1="33.0647" y1="169.261" x2="23.9353" y2="169.261" stroke="var(--stroke-0, white)" stroke-width="1.52156"/>
<line id="Line 61_2" opacity="0.5" x1="33.0647" y1="169.261" x2="23.9353" y2="169.261" stroke="var(--stroke-0, white)" stroke-width="1.52156"/>
<line id="Line 62_2" opacity="0.5" x1="33.0647" y1="169.261" x2="23.9353" y2="169.261" stroke="var(--stroke-0, white)" stroke-width="1.52156"/>
<line id="Line 63_2" opacity="0.5" x1="33.0647" y1="169.261" x2="23.9353" y2="169.261" stroke="var(--stroke-0, white)" stroke-width="1.52156"/>
<line id="Line 64_2" opacity="0.5" x1="33.0647" y1="169.261" x2="23.9353" y2="169.261" stroke="var(--stroke-0, white)" stroke-width="1.52156"/>
<line id="Line 65_2" opacity="0.5" x1="33.0647" y1="169.261" x2="23.9353" y2="169.261" stroke="var(--stroke-0, white)" stroke-width="1.52156"/>
<line id="Line 66_2" opacity="0.5" x1="33.0647" y1="169.261" x2="23.9353" y2="169.261" stroke="var(--stroke-0, white)" stroke-width="1.52156"/>
<line id="Line 67_2" opacity="0.5" x1="33.0647" y1="169.261" x2="23.9353" y2="169.261" stroke="var(--stroke-0, white)" stroke-width="1.52156"/>
<line id="Line 68_2" opacity="0.5" x1="33.0647" y1="169.261" x2="23.9353" y2="169.261" stroke="var(--stroke-0, white)" stroke-width="1.52156"/>
<line id="Line 69_2" opacity="0.5" x1="33.0647" y1="169.261" x2="23.9353" y2="169.261" stroke="var(--stroke-0, white)" stroke-width="1.52156"/>
<line id="Line 70_2" opacity="0.5" x1="33.0647" y1="169.261" x2="23.9353" y2="169.261" stroke="var(--stroke-0, white)" stroke-width="1.52156"/>
<line id="Line 71_3" opacity="0.5" x1="33.0647" y1="169.261" x2="23.9353" y2="169.261" stroke="var(--stroke-0, white)" stroke-width="1.52156"/>
<line id="Line 56_3" opacity="0.5" x1="33.0647" y1="169.261" x2="23.9353" y2="169.261" stroke="var(--stroke-0, white)" stroke-width="1.52156"/>
<line id="Line 57_3" opacity="0.5" x1="33.0647" y1="169.261" x2="23.9353" y2="169.261" stroke="var(--stroke-0, white)" stroke-width="1.52156"/>
<line id="Line 58_3" opacity="0.5" x1="33.0647" y1="169.261" x2="23.9353" y2="169.261" stroke="var(--stroke-0, white)" stroke-width="1.52156"/>
<line id="Line 59_3" opacity="0.5" x1="33.0647" y1="169.261" x2="23.9353" y2="169.261" stroke="var(--stroke-0, white)" stroke-width="1.52156"/>
<line id="Line 60_3" opacity="0.5" x1="33.0647" y1="169.261" x2="23.9353" y2="169.261" stroke="var(--stroke-0, white)" stroke-width="1.52156"/>
<line id="Line 61_3" opacity="0.5" x1="33.0647" y1="169.261" x2="23.9353" y2="169.261" stroke="var(--stroke-0, white)" stroke-width="1.52156"/>
<line id="Line 62_3" opacity="0.5" x1="33.0647" y1="169.261" x2="23.9353" y2="169.261" stroke="var(--stroke-0, white)" stroke-width="1.52156"/>
<line id="Line 63_3" opacity="0.5" x1="33.0647" y1="169.261" x2="23.9353" y2="169.261" stroke="var(--stroke-0, white)" stroke-width="1.52156"/>
<line id="Line 64_3" opacity="0.5" x1="33.0647" y1="169.261" x2="23.9353" y2="169.261" stroke="var(--stroke-0, white)" stroke-width="1.52156"/>
<line id="Line 65_3" opacity="0.5" x1="33.0647" y1="169.261" x2="23.9353" y2="169.261" stroke="var(--stroke-0, white)" stroke-width="1.52156"/>
<line id="Line 66_3" opacity="0.5" x1="33.0647" y1="169.261" x2="23.9353" y2="169.261" stroke="var(--stroke-0, white)" stroke-width="1.52156"/>
<line id="Line 67_3" opacity="0.5" x1="33.0647" y1="169.261" x2="23.9353" y2="169.261" stroke="var(--stroke-0, white)" stroke-width="1.52156"/>
<line id="Line 68_3" opacity="0.5" x1="33.0647" y1="169.261" x2="23.9353" y2="169.261" stroke="var(--stroke-0, white)" stroke-width="1.52156"/>
<line id="Line 69_3" opacity="0.5" x1="33.0647" y1="169.261" x2="23.9353" y2="169.261" stroke="var(--stroke-0, white)" stroke-width="1.52156"/>
<line id="Line 70_3" opacity="0.5" x1="33.0647" y1="169.261" x2="23.9353" y2="169.261" stroke="var(--stroke-0, white)" stroke-width="1.52156"/>
<line id="Line 71_4" opacity="0.5" x1="33.0647" y1="169.261" x2="23.9353" y2="169.261" stroke="var(--stroke-0, white)" stroke-width="1.52156"/>
<line id="Line 56_4" opacity="0.5" x1="33.0647" y1="169.261" x2="23.9353" y2="169.261" stroke="var(--stroke-0, white)" stroke-width="1.52156"/>
<line id="Line 57_4" opacity="0.5" x1="33.0647" y1="169.261" x2="23.9353" y2="169.261" stroke="var(--stroke-0, white)" stroke-width="1.52156"/>
<line id="Line 58_4" opacity="0.5" x1="33.0647" y1="169.261" x2="23.9353" y2="169.261" stroke="var(--stroke-0, white)" stroke-width="1.52156"/>
<line id="Line 59_4" opacity="0.5" x1="33.0647" y1="169.261" x2="23.9353" y2="169.261" stroke="var(--stroke-0, white)" stroke-width="1.52156"/>
<line id="Line 60_4" opacity="0.5" x1="33.0647" y1="169.261" x2="23.9353" y2="169.261" stroke="var(--stroke-0, white)" stroke-width="1.52156"/>
<line id="Line 61_4" opacity="0.5" x1="33.0647" y1="169.261" x2="23.9353" y2="169.261" stroke="var(--stroke-0, white)" stroke-width="1.52156"/>
<line id="Line 62_4" opacity="0.5" x1="33.0647" y1="169.261" x2="23.9353" y2="169.261" stroke="var(--stroke-0, white)" stroke-width="1.52156"/>
<line id="Line 63_4" opacity="0.5" x1="33.0647" y1="169.261" x2="23.9353" y2="169.261" stroke="var(--stroke-0, white)" stroke-width="1.52156"/>
<line id="Line 64_4" opacity="0.5" x1="33.0647" y1="169.261" x2="23.9353" y2="169.261" stroke="var(--stroke-0, white)" stroke-width="1.52156"/>
<line id="Line 65_4" opacity="0.5" x1="33.0647" y1="169.261" x2="23.9353" y2="169.261" stroke="var(--stroke-0, white)" stroke-width="1.52156"/>
<line id="Line 66_4" opacity="0.5" x1="33.0647" y1="169.261" x2="23.9353" y2="169.261" stroke="var(--stroke-0, white)" stroke-width="1.52156"/>
<line id="Line 67_4" opacity="0.5" x1="33.0647" y1="169.261" x2="23.9353" y2="169.261" stroke="var(--stroke-0, white)" stroke-width="1.52156"/>
<line id="Line 68_4" opacity="0.5" x1="33.0647" y1="169.261" x2="23.9353" y2="169.261" stroke="var(--stroke-0, white)" stroke-width="1.52156"/>
<line id="Line 69_4" opacity="0.5" x1="33.0647" y1="169.261" x2="23.9353" y2="169.261" stroke="var(--stroke-0, white)" stroke-width="1.52156"/>
<line id="Line 70_4" opacity="0.5" x1="33.0647" y1="169.261" x2="23.9353" y2="169.261" stroke="var(--stroke-0, white)" stroke-width="1.52156"/>
<line id="Line 71_5" opacity="0.5" x1="33.0647" y1="169.261" x2="23.9353" y2="169.261" stroke="var(--stroke-0, white)" stroke-width="1.52156"/>
<line id="Line 56_5" opacity="0.5" x1="33.0647" y1="169.261" x2="23.9353" y2="169.261" stroke="var(--stroke-0, white)" stroke-width="1.52156"/>
<line id="Line 57_5" opacity="0.5" x1="33.0647" y1="169.261" x2="23.9353" y2="169.261" stroke="var(--stroke-0, white)" stroke-width="1.52156"/>
<line id="Line 58_5" opacity="0.5" x1="33.0647" y1="169.261" x2="23.9353" y2="169.261" stroke="var(--stroke-0, white)" stroke-width="1.52156"/>
<line id="Line 59_5" opacity="0.5" x1="33.0647" y1="169.261" x2="23.9353" y2="169.261" stroke="var(--stroke-0, white)" stroke-width="1.52156"/>
<line id="Line 60_5" opacity="0.5" x1="33.0647" y1="169.261" x2="23.9353" y2="169.261" stroke="var(--stroke-0, white)" stroke-width="1.52156"/>
<line id="Line 61_5" opacity="0.5" x1="33.0647" y1="169.261" x2="23.9353" y2="169.261" stroke="var(--stroke-0, white)" stroke-width="1.52156"/>
<line id="Line 62_5" opacity="0.5" x1="33.0647" y1="169.261" x2="23.9353" y2="169.261" stroke="var(--stroke-0, white)" stroke-width="1.52156"/>
<line id="Line 63_5" opacity="0.5" x1="33.0647" y1="169.261" x2="23.9353" y2="169.261" stroke="var(--stroke-0, white)" stroke-width="1.52156"/>
<line id="Line 64_5" opacity="0.5" x1="33.0647" y1="169.261" x2="23.9353" y2="169.261" stroke="var(--stroke-0, white)" stroke-width="1.52156"/>
<line id="Line 65_5" opacity="0.5" x1="33.0647" y1="169.261" x2="23.9353" y2="169.261" stroke="var(--stroke-0, white)" stroke-width="1.52156"/>
<line id="Line 66_5" opacity="0.5" x1="33.0647" y1="169.261" x2="23.9353" y2="169.261" stroke="var(--stroke-0, white)" stroke-width="1.52156"/>
<line id="Line 67_5" opacity="0.5" x1="33.0647" y1="169.261" x2="23.9353" y2="169.261" stroke="var(--stroke-0, white)" stroke-width="1.52156"/>
<line id="Line 68_5" opacity="0.5" x1="33.0647" y1="169.261" x2="23.9353" y2="169.261" stroke="var(--stroke-0, white)" stroke-width="1.52156"/>
<line id="Line 69_5" opacity="0.5" x1="33.0647" y1="169.261" x2="23.9353" y2="169.261" stroke="var(--stroke-0, white)" stroke-width="1.52156"/>
<line id="Line 70_5" opacity="0.5" x1="33.0647" y1="169.261" x2="23.9353" y2="169.261" stroke="var(--stroke-0, white)" stroke-width="1.52156"/>
<line id="Line 71_6" opacity="0.5" x1="33.0647" y1="169.261" x2="23.9353" y2="169.261" stroke="var(--stroke-0, white)" stroke-width="1.52156"/>
<line id="Line 56_6" opacity="0.5" x1="33.0647" y1="169.261" x2="23.9353" y2="169.261" stroke="var(--stroke-0, white)" stroke-width="1.52156"/>
<line id="Line 57_6" opacity="0.5" x1="33.0647" y1="169.261" x2="23.9353" y2="169.261" stroke="var(--stroke-0, white)" stroke-width="1.52156"/>
<line id="Line 58_6" opacity="0.5" x1="33.0647" y1="169.261" x2="23.9353" y2="169.261" stroke="var(--stroke-0, white)" stroke-width="1.52156"/>
<line id="Line 59_6" opacity="0.5" x1="33.0647" y1="169.261" x2="23.9353" y2="169.261" stroke="var(--stroke-0, white)" stroke-width="1.52156"/>
<line id="Line 60_6" opacity="0.5" x1="33.0647" y1="169.261" x2="23.9353" y2="169.261" stroke="var(--stroke-0, white)" stroke-width="1.52156"/>
<line id="Line 61_6" opacity="0.5" x1="33.0647" y1="169.261" x2="23.9353" y2="169.261" stroke="var(--stroke-0, white)" stroke-width="1.52156"/>
<line id="Line 62_6" opacity="0.5" x1="33.0647" y1="169.261" x2="23.9353" y2="169.261" stroke="var(--stroke-0, white)" stroke-width="1.52156"/>
<line id="Line 63_6" opacity="0.5" x1="33.0647" y1="169.261" x2="23.9353" y2="169.261" stroke="var(--stroke-0, white)" stroke-width="1.52156"/>
<line id="Line 64_6" opacity="0.5" x1="33.0647" y1="169.261" x2="23.9353" y2="169.261" stroke="var(--stroke-0, white)" stroke-width="1.52156"/>
<line id="Line 65_6" opacity="0.5" x1="33.0647" y1="169.261" x2="23.9353" y2="169.261" stroke="var(--stroke-0, white)" stroke-width="1.52156"/>
<line id="Line 66_6" opacity="0.5" x1="33.0647" y1="169.261" x2="23.9353" y2="169.261" stroke="var(--stroke-0, white)" stroke-width="1.52156"/>
<line id="Line 67_6" opacity="0.5" x1="33.0647" y1="169.261" x2="23.9353" y2="169.261" stroke="var(--stroke-0, white)" stroke-width="1.52156"/>
<line id="Line 68_6" opacity="0.5" x1="33.0647" y1="169.261" x2="23.9353" y2="169.261" stroke="var(--stroke-0, white)" stroke-width="1.52156"/>
<line id="Line 69_6" opacity="0.5" x1="33.0647" y1="169.261" x2="23.9353" y2="169.261" stroke="var(--stroke-0, white)" stroke-width="1.52156"/>
<line id="Line 56_7" opacity="0.5" x1="33.0647" y1="169.261" x2="23.9353" y2="169.261" stroke="var(--stroke-0, white)" stroke-width="1.52156"/>
<line id="Line 57_7" opacity="0.5" x1="33.0647" y1="169.261" x2="23.9353" y2="169.261" stroke="var(--stroke-0, white)" stroke-width="1.52156"/>
<line id="Line 58_7" opacity="0.5" x1="33.0647" y1="169.261" x2="23.9353" y2="169.261" stroke="var(--stroke-0, white)" stroke-width="1.52156"/>
<line id="Line 59_7" opacity="0.5" x1="33.0647" y1="169.261" x2="23.9353" y2="169.261" stroke="var(--stroke-0, white)" stroke-width="1.52156"/>
<line id="Line 60_7" opacity="0.5" x1="33.0647" y1="169.261" x2="23.9353" y2="169.261" stroke="var(--stroke-0, white)" stroke-width="1.52156"/>
<line id="Line 61_7" opacity="0.5" x1="33.0647" y1="169.261" x2="23.9353" y2="169.261" stroke="var(--stroke-0, white)" stroke-width="1.52156"/>
<line id="Line 62_7" opacity="0.5" x1="33.0647" y1="169.261" x2="23.9353" y2="169.261" stroke="var(--stroke-0, white)" stroke-width="1.52156"/>
<line id="Line 63_7" opacity="0.5" x1="33.0647" y1="169.261" x2="23.9353" y2="169.261" stroke="var(--stroke-0, white)" stroke-width="1.52156"/>
<line id="Line 64_7" opacity="0.5" x1="33.0647" y1="169.261" x2="23.9353" y2="169.261" stroke="var(--stroke-0, white)" stroke-width="1.52156"/>
<line id="Line 65_7" opacity="0.5" x1="33.0647" y1="169.261" x2="23.9353" y2="169.261" stroke="var(--stroke-0, white)" stroke-width="1.52156"/>
<line id="Line 66_7" opacity="0.5" x1="33.0647" y1="169.261" x2="23.9353" y2="169.261" stroke="var(--stroke-0, white)" stroke-width="1.52156"/>
<line id="Line 67_7" opacity="0.5" x1="33.0647" y1="169.261" x2="23.9353" y2="169.261" stroke="var(--stroke-0, white)" stroke-width="1.52156"/>
<line id="Line 68_7" opacity="0.5" x1="33.0647" y1="169.261" x2="23.9353" y2="169.261" stroke="var(--stroke-0, white)" stroke-width="1.52156"/>
<line id="Line 69_7" opacity="0.5" x1="33.0647" y1="169.261" x2="23.9353" y2="169.261" stroke="var(--stroke-0, white)" stroke-width="1.52156"/>
<line id="Line 70_6" opacity="0.5" x1="33.0647" y1="169.261" x2="23.9353" y2="169.261" stroke="var(--stroke-0, white)" stroke-width="1.52156"/>
</g>
</g>
<defs>
<clipPath id="clip0_0_4">
<rect width="16" height="336" fill="white"/>
</clipPath>
</defs>
</svg>
