<svg width="685" height="849" viewBox="0 0 685.109 848.402" fill="none" xmlns="http://www.w3.org/2000/svg">
<g opacity="0.15">
<path d="M346.614 0.487305C532.265 5.5378 685.066 193.282 685.066 424.385C685.066 658.551 531.687 848.402 342.566 848.402C153.448 848.401 0.000821916 658.482 0 424.317C0.000124336 190.267 149.659 0.299805 338.941 0.299805H346.614V0.487305ZM333.302 15.7129C158.125 19.4641 15.3458 197.733 15.3457 424.317C15.3465 653.209 164.802 833.055 342.566 833.057C520.332 833.057 669.727 653.278 669.728 424.385C669.728 195.606 516.867 15.7147 338.941 15.7129H333.302ZM351.635 758.189H336.289V698.318H351.635V758.189ZM251.088 665.433L212.591 711.255L200.844 701.388L239.342 655.559L251.088 665.433ZM489.713 701.388L477.967 711.255L439.469 665.433L451.216 655.559L489.713 701.388ZM195.276 575.646L136.295 586.062L133.633 570.95L192.607 560.541L195.276 575.646ZM560.458 570.95L559.12 578.502L557.789 586.062L498.875 575.646L501.551 560.541L560.458 570.95ZM422.424 96.9766L359.148 265.711L445.074 174.642L456.239 185.17L372.227 274.207L539.637 194.689L546.219 208.55L372.628 291.011H597.728V306.356H348.934V573.988H333.588V306.356H88.3594V291.011H303.786L125.961 208.583L132.409 194.663L306.944 275.559L223.888 185.097L235.187 174.715L319.038 266.046L259.837 96.8164L274.319 91.7451L338.839 276.167L408.055 91.585L422.424 96.9766ZM194.559 349.517C200.99 349.517 206.204 354.73 206.204 361.161C206.204 367.592 200.99 372.807 194.559 372.807C188.127 372.806 182.914 367.592 182.914 361.161C182.914 354.73 188.128 349.517 194.559 349.517ZM241.121 349.517C247.552 349.517 252.766 354.73 252.767 361.161C252.767 367.592 247.552 372.807 241.121 372.807C234.69 372.806 229.477 367.592 229.477 361.161C229.477 354.73 234.69 349.517 241.121 349.517ZM287.73 349.517C294.162 349.517 299.376 354.73 299.376 361.161C299.376 367.592 294.162 372.807 287.73 372.807C281.299 372.806 276.086 367.592 276.086 361.161C276.086 354.73 281.299 349.517 287.73 349.517ZM394.543 349.517C400.974 349.517 406.188 354.73 406.188 361.161C406.188 367.592 400.974 372.807 394.543 372.807C388.112 372.806 382.898 367.592 382.898 361.161C382.899 354.73 388.112 349.517 394.543 349.517ZM441.113 349.517C447.544 349.517 452.759 354.73 452.759 361.161C452.759 367.592 447.545 372.807 441.113 372.807C434.682 372.806 429.469 367.592 429.469 361.161C429.469 354.73 434.682 349.517 441.113 349.517ZM487.723 349.517C494.154 349.517 499.368 354.73 499.368 361.161C499.368 367.592 494.154 372.807 487.723 372.807C481.292 372.806 476.078 367.592 476.078 361.161C476.078 354.73 481.292 349.517 487.723 349.517Z" fill="#FF3A1F"/>
</g>
</svg>
